<svg width="66" height="66" viewBox="0 0 66 66" fill="none" xmlns="http://www.w3.org/2000/svg">
<path d="M49.8467 62.3333C49.0364 62.3326 48.2449 62.09 47.5733 61.6367L33.8967 52.47C33.8293 52.4235 33.7494 52.3986 33.6675 52.3986C33.5856 52.3986 33.5057 52.4235 33.4383 52.47L19.7617 61.6367C19.0749 62.0952 18.2649 62.334 17.4391 62.3214C16.6134 62.3087 15.8111 62.0452 15.1387 61.5657C14.4663 61.0863 13.9557 60.4137 13.6746 59.6372C13.3935 58.8607 13.3553 58.0171 13.565 57.2183L18.0567 41.3783C18.0779 41.2987 18.0753 41.2146 18.0493 41.1364C18.0232 41.0582 17.9748 40.9893 17.91 40.9383L4.96666 30.7633C4.28528 30.2557 3.77985 29.5476 3.52123 28.7382C3.26262 27.9289 3.26379 27.0589 3.52458 26.2502C3.78537 25.4416 4.29271 24.7348 4.97545 24.229C5.65819 23.7233 6.48211 23.4439 7.33166 23.43L23.8317 22.8067C23.9128 22.8011 23.9906 22.7721 24.0556 22.7233C24.1207 22.6745 24.1702 22.608 24.1983 22.5317L29.8817 7.07666C30.1681 6.29316 30.6885 5.61662 31.3722 5.13863C32.0559 4.66065 32.8699 4.4043 33.7042 4.4043C34.5384 4.4043 35.3525 4.66065 36.0362 5.13863C36.7199 5.61662 37.2402 6.29316 37.5267 7.07666L43.21 22.5317C43.2381 22.608 43.2877 22.6745 43.3527 22.7233C43.4178 22.7721 43.4955 22.8011 43.5767 22.8067L60.0767 23.43C60.9262 23.4439 61.7501 23.7233 62.4329 24.229C63.1156 24.7348 63.623 25.4416 63.8838 26.2502C64.1445 27.0589 64.1457 27.9289 63.8871 28.7382C63.6285 29.5476 63.123 30.2557 62.4417 30.7633L49.4983 40.9383C49.4316 40.9877 49.3817 41.0564 49.3554 41.1351C49.3292 41.2139 49.3279 41.2988 49.3517 41.3783L53.8433 57.2183C54.001 57.8259 54.0166 58.4616 53.889 59.0762C53.7615 59.6908 53.4941 60.2678 53.1076 60.7624C52.7211 61.257 52.2259 61.656 51.6605 61.9284C51.095 62.2008 50.4743 62.3394 49.8467 62.3333ZM33.6767 48.73C34.4885 48.7548 35.2742 49.0231 35.9317 49.5L49.6083 58.6667C49.6776 58.7193 49.7621 58.7482 49.8492 58.7489C49.9362 58.7496 50.0212 58.7221 50.0913 58.6705C50.1615 58.6189 50.213 58.546 50.2383 58.4627C50.2636 58.3794 50.2613 58.2902 50.2317 58.2083L45.74 42.3683C45.519 41.5913 45.5353 40.7659 45.7868 39.9982C46.0384 39.2305 46.5137 38.5556 47.1517 38.06L60.095 27.885C60.1656 27.8354 60.2185 27.7645 60.2458 27.6826C60.2731 27.6008 60.2734 27.5123 60.2468 27.4303C60.2201 27.3482 60.1678 27.2769 60.0976 27.2267C60.0274 27.1766 59.9429 27.1503 59.8567 27.1517L43.3567 26.5283C42.5487 26.4968 41.7685 26.2254 41.1155 25.7487C40.4624 25.272 39.9662 24.6116 39.69 23.8517L34.0067 8.39666C33.981 8.3146 33.9299 8.24287 33.8606 8.19194C33.7914 8.14101 33.7076 8.11354 33.6217 8.11354C33.5357 8.11354 33.452 8.14101 33.3827 8.19194C33.3135 8.24287 33.2623 8.3146 33.2367 8.39666L27.6083 23.8333C27.3321 24.5932 26.8359 25.2536 26.1829 25.7304C25.5298 26.2071 24.7496 26.4785 23.9417 26.51L7.44166 27.1333C7.35539 27.1319 7.27095 27.1582 7.20073 27.2084C7.13052 27.2585 7.07824 27.3299 7.05157 27.4119C7.0249 27.494 7.02525 27.5824 7.05257 27.6643C7.07988 27.7461 7.13272 27.8171 7.20333 27.8667L20.165 38.06C20.8011 38.5571 21.2749 39.2322 21.5263 39.9994C21.7776 40.7666 21.7952 41.5912 21.5767 42.3683L17.1033 58.2083C17.0766 58.2876 17.0765 58.3735 17.103 58.4529C17.1294 58.5323 17.181 58.6009 17.25 58.6483C17.3164 58.7051 17.4009 58.7364 17.4883 58.7364C17.5757 58.7364 17.6602 58.7051 17.7267 58.6483L31.4033 49.4817C32.0717 49.0383 32.8562 48.8023 33.6583 48.8033L33.6767 48.73Z" fill="white"/>
</svg>
