<svg width="20" height="20" viewBox="0 0 20 20" fill="none" xmlns="http://www.w3.org/2000/svg">
<path d="M10 20C15.5229 20 20 15.5229 20 10C20 4.47715 15.5229 0 10 0C4.47715 0 0 4.47715 0 10C0 15.5229 4.47715 20 10 20Z" fill="#333333"/>
<path d="M8.22542 5.3563C8.19896 5.34981 8.17166 5.3499 8.14486 5.35711C8.06797 5.37711 8.00924 5.45335 8.00977 5.53289V6.79672C8.00977 7.04627 8.14141 7.26748 8.3418 7.39731V7.63576V8.36085C8.38204 8.93519 8.60314 9.33639 8.91146 9.58318C8.87532 9.86798 8.75261 10.0324 8.5485 10.1838C8.30724 10.3627 7.95639 10.5016 7.58578 10.6598C7.21516 10.8181 6.82158 11.0092 6.51888 11.3443C6.21618 11.6793 6.02148 12.1484 6.02165 12.8254V12.9491L6.125 12.9906C7.07365 13.4022 7.55298 13.6134 7.79248 13.7157C7.91224 13.7668 7.96623 13.7949 8 13.8084C8.0169 13.8151 8.02341 13.8136 8.04151 13.819C8.04601 13.819 8.0529 13.8279 8.06185 13.8296H8.07243C8.09961 13.8404 8.15773 13.8652 8.26937 13.9126C8.50272 14.0122 8.96548 14.2089 9.90511 14.6166L9.97835 14.6483L10.0508 14.6166C11.0069 14.2104 11.4849 14.0132 11.7288 13.9126C11.8459 13.8644 11.9051 13.8306 11.9355 13.819C11.9409 13.8188 11.9417 13.819 11.9461 13.819C11.964 13.8149 11.9805 13.8109 11.9876 13.8084C12.002 13.8039 12.0021 13.8049 12.0186 13.7987C12.0515 13.7849 12.1186 13.756 12.2358 13.7051C12.4704 13.6034 12.9384 13.3976 13.8724 12.9906L13.9758 12.9491V12.8254C13.9758 12.1645 13.7792 11.6993 13.4785 11.3752C13.1779 11.0511 12.7881 10.8771 12.4222 10.7225C12.0563 10.5678 11.7072 10.4295 11.4692 10.2456C11.2357 10.0652 11.1014 9.8575 11.0965 9.45867C11.4184 9.19255 11.6416 8.81823 11.6556 8.36085V7.63575V7.34604V6.74545C11.6557 6.167 11.218 5.68832 10.6619 5.68832H10.1851H8.67302C8.55932 5.68832 8.46523 5.66974 8.42399 5.64682C8.38276 5.6239 8.37272 5.62014 8.37272 5.53289C8.37347 5.44964 8.30482 5.37575 8.22543 5.35629L8.22542 5.3563ZM4.84652 6.36541C4.79169 6.37999 4.75011 6.43399 4.75049 6.49074V7.39243C4.75049 7.57039 4.8436 7.72791 4.98649 7.82049V7.99057V8.50734C5.01519 8.91688 5.17272 9.20292 5.39258 9.37892C5.36681 9.582 5.27933 9.69902 5.13379 9.80698C4.96175 9.93456 4.71122 10.0343 4.44694 10.1472C4.18266 10.26 3.9027 10.3957 3.68685 10.6346C3.471 10.8735 3.33191 11.2082 3.33203 11.6909V11.7796L3.40609 11.8089C4.08256 12.1025 4.42426 12.2528 4.59505 12.3257C4.68045 12.3624 4.71827 12.3828 4.74235 12.3924C4.7544 12.397 4.75956 12.3964 4.77246 12.3998C4.77567 12.3998 4.78073 12.4058 4.78711 12.4071H4.79443C4.81381 12.415 4.8548 12.4324 4.93441 12.4665C5.03038 12.5074 5.3686 12.6536 5.60742 12.7562C5.61414 12.409 5.66935 12.0967 5.76611 11.8228L5.98991 10.5923C6.02697 10.478 5.94506 10.4191 5.93945 10.4124C5.86592 10.3477 5.8224 10.26 5.82227 10.1594C5.82225 9.96811 5.97692 9.81268 6.16813 9.81268C6.35935 9.81268 6.51401 9.96811 6.514 10.1594C6.51378 10.2539 6.47584 10.3483 6.40983 10.4124C6.40983 10.4124 6.324 10.4542 6.361 10.5923L6.41146 10.8763C6.73879 10.5898 7.10475 10.4129 7.4222 10.2774C7.54416 10.2253 7.64811 10.1789 7.75667 10.1309C7.55004 10.0436 7.35512 9.95834 7.21712 9.85174C7.05056 9.72307 6.95448 9.57468 6.95101 9.29022C7.18051 9.10047 7.3398 8.83351 7.34977 8.50734V7.99057V7.78387V7.35499C7.34981 6.94249 7.03747 6.60223 6.64095 6.60223H6.30078H5.22249C5.14142 6.60223 5.0753 6.58837 5.0459 6.57212C5.01649 6.55587 5.00846 6.55319 5.00846 6.49074C5.00917 6.41153 4.92297 6.34483 4.84652 6.36541L4.84652 6.36541ZM15.0939 6.36541C15.0373 6.37927 14.9884 6.43133 14.9889 6.49074C14.9889 6.55319 14.9809 6.55587 14.9515 6.57212C14.9221 6.58837 14.856 6.60223 14.7749 6.60223H13.6966H13.3564C12.9599 6.60223 12.6476 6.94249 12.6476 7.35499V7.78387V7.99057V8.50734C12.6576 8.83351 12.8169 9.10047 13.0464 9.29022C13.0429 9.57467 12.9468 9.72307 12.7803 9.85174C12.6273 9.96988 12.4072 10.0618 12.1748 10.1594C12.3019 10.2172 12.4348 10.2753 12.5842 10.3384C12.8909 10.468 13.253 10.6309 13.5802 10.9072L13.6364 10.5923C13.6734 10.4542 13.5876 10.4124 13.5876 10.4124C13.5216 10.3483 13.4836 10.2539 13.4834 10.1594C13.4834 9.96811 13.6381 9.81268 13.8293 9.81268C14.0205 9.81268 14.1751 9.96811 14.1751 10.1594C14.175 10.26 14.1315 10.3477 14.0579 10.4124C14.0523 10.4191 13.9704 10.478 14.0075 10.5923L14.2394 11.8683C14.3303 12.131 14.3833 12.428 14.39 12.7562C14.6288 12.6536 14.967 12.5074 15.063 12.4665C15.1426 12.4324 15.1836 12.415 15.203 12.4071H15.2103C15.2167 12.4058 15.2217 12.3998 15.2249 12.3998C15.2378 12.3964 15.243 12.397 15.2551 12.3924C15.2791 12.3828 15.317 12.3624 15.4024 12.3257C15.5731 12.2528 15.9148 12.1025 16.5913 11.8089L16.6654 11.7796V11.6909C16.6655 11.2082 16.5264 10.8735 16.3105 10.6346C16.0947 10.3957 15.8147 10.26 15.5505 10.1472C15.2862 10.0343 15.0357 9.93456 14.8636 9.80698C14.7181 9.69902 14.6306 9.582 14.6048 9.37892C14.8247 9.20292 14.9822 8.91688 15.0109 8.50734V7.99057V7.82049C15.1538 7.72791 15.2469 7.57039 15.2469 7.39243V6.49074C15.2473 6.43399 15.2057 6.37999 15.1509 6.36541C15.1318 6.36027 15.1128 6.36079 15.0939 6.36541ZM9.9987 10.1911C10.2668 10.1911 10.4846 10.4088 10.4845 10.6769C10.4842 10.8095 10.4298 10.9426 10.3372 11.0326C10.3372 11.0326 10.217 11.0912 10.2689 11.2848L10.6619 13.4821L9.9987 13.8141L9.34847 13.4789L9.74886 11.2848C9.80084 11.1246 9.68592 11.0417 9.67806 11.0326C9.57495 10.9418 9.51304 10.8181 9.51286 10.6769C9.51284 10.4088 9.73055 10.1911 9.9987 10.1911Z" fill="white"/>
</svg>
