<svg width="63" height="65" viewBox="0 0 63 65" fill="none" xmlns="http://www.w3.org/2000/svg">
<rect width="63" height="65" rx="4" fill="#28A745"/>
<path d="M46 19.5H16V28.5H17.5V45C17.5 45.7956 17.8161 46.5587 18.3787 47.1213C18.9413 47.6839 19.7044 48 20.5 48H41.5C42.2956 48 43.0587 47.6839 43.6213 47.1213C44.1839 46.5587 44.5 45.7956 44.5 45V28.5H46V19.5ZM19 22.5H43V25.5H19V22.5ZM41.5 45H20.5V28.5H41.5V45ZM32.5 30V37.755L36.385 33.885L38.5 36L31 43.5L23.5 36L25.615 33.87L29.5 37.755V30H32.5Z" fill="white"/>
</svg>
