<svg width="28" height="28" viewBox="0 0 28 28" fill="none" xmlns="http://www.w3.org/2000/svg">
<path fill-rule="evenodd" clip-rule="evenodd" d="M14 26.25C17.2489 26.25 20.3647 24.9594 22.6621 22.6621C24.9594 20.3647 26.25 17.2489 26.25 14C26.25 10.7511 24.9594 7.63526 22.6621 5.33794C20.3647 3.04062 17.2489 1.75 14 1.75C10.7511 1.75 7.63526 3.04062 5.33794 5.33794C3.04062 7.63526 1.75 10.7511 1.75 14C1.75 17.2489 3.04062 20.3647 5.33794 22.6621C7.63526 24.9594 10.7511 26.25 14 26.25ZM14 28C17.713 28 21.274 26.525 23.8995 23.8995C26.525 21.274 28 17.713 28 14C28 10.287 26.525 6.72601 23.8995 4.10051C21.274 1.475 17.713 0 14 0C10.287 0 6.72601 1.475 4.10051 4.10051C1.475 6.72601 0 10.287 0 14C0 17.713 1.475 21.274 4.10051 23.8995C6.72601 26.525 10.287 28 14 28Z" fill="#28A745"/>
<path fill-rule="evenodd" clip-rule="evenodd" d="M19.1967 8.69738C19.4416 8.45461 19.7722 8.31797 20.1171 8.31702C20.4619 8.31607 20.7933 8.45088 21.0395 8.6923C21.2858 8.93371 21.4271 9.26235 21.433 9.60715C21.4389 9.95195 21.3088 10.2852 21.0709 10.5349L14.0849 19.2674C13.9649 19.3967 13.82 19.5005 13.6589 19.5725C13.4978 19.6446 13.3238 19.6834 13.1474 19.6866C12.9709 19.6899 12.7957 19.6576 12.632 19.5915C12.4684 19.5255 12.3197 19.4272 12.1949 19.3024L7.56618 14.6719C7.43723 14.5517 7.3338 14.4068 7.26206 14.2458C7.19032 14.0848 7.15175 13.911 7.14864 13.7348C7.14553 13.5586 7.17795 13.3835 7.24396 13.2201C7.30997 13.0567 7.40823 12.9082 7.53286 12.7836C7.65749 12.6589 7.80595 12.5607 7.96938 12.4947C8.13281 12.4287 8.30786 12.3962 8.48409 12.3993C8.66032 12.4025 8.83412 12.441 8.99512 12.5128C9.15612 12.5845 9.30102 12.6879 9.42118 12.8169L13.0857 16.4796L19.1634 8.73588C19.1743 8.72232 19.186 8.70946 19.1984 8.69738H19.1967Z" fill="#28A745"/>
</svg>
