<svg width="20" height="20" viewBox="0 0 20 20" fill="none" xmlns="http://www.w3.org/2000/svg">
<path d="M0 0V8.20206L3.85455 4.35235L5.11211 3.0746L3.09758 0H0ZM16.9024 0L14.8879 3.0746L20 8.17739V0H16.9024ZM14.4494 3.62133L13.3018 4.96417V4.96487L15.9768 7.55737L18.2895 9.79978L19.4931 8.74332L14.4494 3.62133ZM5.53782 3.63435L0.488687 8.76386L1.72331 10.0142L3.95912 7.74371L6.56532 5.09982C6.56532 5.09982 6.60204 5.06098 6.6085 5.05324C6.56046 4.98449 6.54802 4.96257 6.48099 4.87168C6.33633 4.67552 6.15637 4.43874 5.98107 4.20916C5.75306 3.91055 5.66374 3.79658 5.53782 3.63435V3.63435ZM9.8138 4.55584C9.71809 4.55517 9.62171 4.5591 9.52572 4.56406C8.45412 4.62171 7.50235 5.04639 7.101 5.54515C7.09378 5.55421 7.08613 5.5629 7.07806 5.57119L4.90634 7.77454L2.21109 10.5123L3.56647 11.8894L6.82776 15.2061L10.3238 18.7591C10.3275 18.7627 10.3311 18.7663 10.3346 18.7701L11.267 19.7169C11.267 19.7169 11.4401 19.8736 11.6779 19.9499C11.9156 20.0261 12.1557 20.0531 12.476 19.7279C12.8127 19.3859 12.8127 18.8523 12.476 18.5104C12.1495 18.1788 12.6393 17.6814 12.9658 18.013C13.3025 18.3549 13.8273 18.3549 14.164 18.013C14.5008 17.6711 14.5032 17.1379 14.1667 16.7962C13.8531 16.4665 14.3273 15.9822 14.6538 16.2988C14.9905 16.6408 15.518 16.6408 15.8547 16.2988C16.1914 15.9569 16.1911 15.421 15.8547 15.0793C15.5773 14.7505 16.0179 14.3029 16.3418 14.5847C16.6785 14.9266 17.2059 14.9266 17.5427 14.5847C17.8793 14.2428 17.8793 13.707 17.5427 13.3651L17.54 13.3624C17.1117 12.9194 16.6779 12.4839 16.2446 12.0449C15.2644 11.0531 14.282 10.0666 13.2997 9.07696C12.234 9.44089 11.1872 9.42169 10.143 9.10849L8.22766 10.8562C8.05878 11.0107 7.86555 11.1262 7.66163 11.1981C7.25458 11.3417 6.80786 11.3164 6.41756 11.1303C5.79303 10.83 5.41844 10.0927 5.46628 9.52025C5.48826 9.09122 5.67328 8.66737 6.01208 8.35759C6.8675 7.57399 7.75137 6.77195 8.59736 5.99255C8.92985 5.63971 9.3954 5.40545 9.82929 5.26838C10.2999 5.11806 10.7985 5.06312 11.2771 5.05873C10.8413 4.83548 10.4672 4.55963 9.81377 4.55585L9.8138 4.55584ZM12.7324 5.38278C12.3539 5.49575 11.9079 5.63732 11.5625 5.74317C10.6717 5.77715 9.75698 5.90734 9.21133 6.36937C8.33197 7.19728 7.3802 8.05159 6.47357 8.88034C6.37327 8.97204 6.29652 9.07869 6.24351 9.19343L6.24282 9.19413C6.06994 9.5868 6.12364 9.97746 6.40474 10.2629C6.66977 10.5321 7.07822 10.6516 7.43495 10.5349C7.55263 10.4935 7.6654 10.4277 7.76621 10.3356L9.81919 8.45833C9.9134 8.37218 10.0465 8.34536 10.166 8.38844C11.181 8.74228 12.2683 8.71382 13.2741 8.36789C13.4026 8.31387 13.5504 8.34329 13.6492 8.44257C14.6528 9.45471 15.6616 10.4631 16.6676 11.4804L17.7896 10.2842L12.7324 5.38278ZM3.32967 12.6403C3.06178 12.9255 2.79413 13.2099 2.52885 13.4974C2.52795 13.4983 2.52706 13.4992 2.52615 13.5001C2.19754 13.8497 2.21004 14.383 2.55449 14.7169C2.89889 15.0507 3.4267 15.0405 3.75538 14.6908C4.07336 14.3524 4.57329 14.8368 4.2553 15.1752C3.92668 15.5249 3.93849 16.0581 4.28296 16.392C4.62748 16.726 5.15303 16.7137 5.48182 16.3639C5.80013 16.0489 6.27642 16.511 5.98107 16.8483C5.65245 17.1979 5.66494 17.7339 6.00941 18.0678C6.35392 18.4018 6.8815 18.3889 7.21029 18.039C7.52828 17.7006 8.0282 18.185 7.71022 18.5234C7.3816 18.873 7.39409 19.4063 7.73855 19.7402C8.06617 20.0578 8.30531 20.027 8.54139 19.9451C8.77748 19.8631 8.94686 19.7018 8.94686 19.7018L9.59453 19.0126L6.33864 15.7007L3.32967 12.6403Z" fill="#333333"/>
</svg>
