<svg width="393" height="144" viewBox="0 0 393 144" fill="none" xmlns="http://www.w3.org/2000/svg">
<path d="M13.9824 106.526C12.3704 106.526 11.0737 106.035 10.0925 105.054C9.11131 104.073 8.6207 102.741 8.6207 101.059V36.8241C8.6207 35.2121 9.11131 33.9155 10.0925 32.9343C11.0737 31.883 12.3704 31.3573 13.9824 31.3573C15.6644 31.3573 16.9961 31.8479 17.9773 32.8292C18.9585 33.8104 19.4491 35.142 19.4491 36.8241V101.059C19.4491 102.741 18.9585 104.073 17.9773 105.054C17.0662 106.035 15.7345 106.526 13.9824 106.526ZM102.46 31.3573C104.002 31.3573 105.264 31.883 106.245 32.9343C107.226 33.9155 107.717 35.2121 107.717 36.8241V101.374C107.717 102.986 107.261 104.248 106.35 105.159C105.509 106.07 104.318 106.526 102.776 106.526C101.304 106.526 100.147 106.07 99.3064 105.159C98.4654 104.248 98.0449 102.986 98.0449 101.374V52.4886L77.4393 91.7023C76.1076 94.1553 74.3905 95.3818 72.2879 95.3818C70.1853 95.3818 68.4682 94.1553 67.1365 91.7023L46.4258 52.9091V101.374C46.4258 102.986 46.0053 104.248 45.1642 105.159C44.3232 106.07 43.1317 106.526 41.5898 106.526C40.118 106.526 38.9265 106.07 38.0154 105.159C37.1743 104.178 36.7538 102.916 36.7538 101.374V36.8241C36.7538 35.2121 37.2444 33.9155 38.2256 32.9343C39.2068 31.883 40.4684 31.3573 42.0103 31.3573C44.183 31.3573 45.9352 32.6189 47.2668 35.142L72.393 83.1867L97.309 35.142C98.6406 32.6189 100.358 31.3573 102.46 31.3573ZM130.406 106C128.724 106 127.392 105.544 126.411 104.633C125.5 103.652 125.045 102.355 125.045 100.743V37.1395C125.045 35.5275 125.5 34.266 126.411 33.3548C127.392 32.3736 128.724 31.883 130.406 31.883H169.094C170.706 31.883 171.933 32.2685 172.774 33.0394C173.685 33.8104 174.14 34.8967 174.14 36.2985C174.14 37.7002 173.685 38.7866 172.774 39.5575C171.933 40.2584 170.706 40.6088 169.094 40.6088H135.663V63.9478H166.992C168.604 63.9478 169.83 64.3333 170.671 65.1042C171.582 65.8752 172.038 66.9615 172.038 68.3633C172.038 69.765 171.582 70.8514 170.671 71.6223C169.83 72.3933 168.604 72.7788 166.992 72.7788H135.663V97.2742H169.094C172.458 97.2742 174.14 98.711 174.14 101.585C174.14 102.986 173.685 104.073 172.774 104.844C171.933 105.615 170.706 106 169.094 106H130.406ZM245.014 98.2203C245.925 99.2016 246.381 100.288 246.381 101.479C246.381 102.811 245.855 104.003 244.804 105.054C243.752 106.035 242.561 106.526 241.229 106.526C239.757 106.526 238.496 105.895 237.445 104.633L214.631 75.9327L191.713 104.633C190.662 105.895 189.435 106.526 188.033 106.526C186.702 106.526 185.51 106.035 184.459 105.054C183.408 104.003 182.882 102.811 182.882 101.479C182.882 100.358 183.302 99.2716 184.143 98.2203L208.323 68.2581L185.3 39.6626C184.459 38.7515 184.038 37.6652 184.038 36.4036C184.038 35.0719 184.529 33.9155 185.51 32.9343C186.561 31.883 187.753 31.3573 189.085 31.3573C190.556 31.3573 191.818 31.9881 192.869 33.2497L214.631 60.6888L236.393 33.2497C237.375 31.9881 238.636 31.3573 240.178 31.3573C241.51 31.3573 242.701 31.883 243.752 32.9343C244.804 33.9155 245.329 35.0719 245.329 36.4036C245.329 37.5951 244.874 38.6814 243.963 39.6626L220.939 68.2581L245.014 98.2203Z" fill="#28A745"/>
<path d="M261.988 104.539V45.9462L269.158 44.7127V65.2201C270.494 64.7061 271.908 64.3207 273.398 64.0637C274.94 63.7553 276.456 63.6011 277.947 63.6011C281.133 63.6011 283.78 64.0637 285.888 64.9888C287.995 65.8626 289.665 67.1218 290.899 68.7665C292.184 70.3598 293.083 72.2872 293.597 74.5487C294.111 76.8102 294.368 79.3029 294.368 82.027V104.539H287.198V83.5689C287.198 81.1018 287.018 78.9946 286.659 77.2471C286.35 75.4996 285.811 74.0861 285.04 73.0068C284.269 71.9275 283.241 71.1565 281.956 70.6939C280.671 70.1799 279.078 69.923 277.176 69.923C276.405 69.923 275.608 69.9744 274.786 70.0772C273.964 70.1799 273.167 70.3084 272.396 70.4626C271.676 70.5654 271.008 70.6939 270.391 70.8481C269.826 71.0023 269.415 71.1308 269.158 71.2336V104.539H261.988ZM337.95 103.383C336.305 103.794 334.12 104.231 331.396 104.693C328.724 105.156 325.614 105.387 322.068 105.387C318.984 105.387 316.388 104.95 314.281 104.076C312.174 103.151 310.478 101.866 309.193 100.222C307.908 98.5769 306.983 96.6495 306.417 94.4394C305.852 92.1779 305.569 89.6852 305.569 86.9611V64.4492H312.739V85.4192C312.739 90.3019 313.51 93.7969 315.052 95.9042C316.594 98.0115 319.19 99.0651 322.839 99.0651C323.61 99.0651 324.406 99.0394 325.229 98.988C326.051 98.9367 326.822 98.8853 327.542 98.8339C328.261 98.7311 328.904 98.654 329.469 98.6026C330.086 98.4998 330.523 98.397 330.78 98.2942V64.4492H337.95V103.383ZM357.472 66.2224C358.345 65.657 359.656 65.0659 361.404 64.4492C363.202 63.8324 365.258 63.524 367.571 63.524C370.449 63.524 372.994 64.038 375.204 65.0659C377.465 66.0939 379.367 67.533 380.909 69.3833C382.451 71.2336 383.607 73.4437 384.378 76.0135C385.2 78.5834 385.612 81.4102 385.612 84.4941C385.612 87.7321 385.123 90.6617 384.147 93.283C383.222 95.8528 381.885 98.0372 380.138 99.8361C378.39 101.635 376.283 103.023 373.816 103.999C371.349 104.976 368.573 105.464 365.49 105.464C362.149 105.464 359.193 105.233 356.624 104.77C354.054 104.308 351.946 103.845 350.302 103.383V45.9462L357.472 44.7127V66.2224ZM357.472 98.2942C358.191 98.4998 359.193 98.7054 360.478 98.911C361.815 99.0651 363.459 99.1422 365.412 99.1422C369.267 99.1422 372.351 97.883 374.664 95.3645C376.977 92.7947 378.133 89.1712 378.133 84.4941C378.133 82.4382 377.928 80.5108 377.517 78.7119C377.105 76.913 376.437 75.3711 375.512 74.0861C374.587 72.7498 373.379 71.7219 371.889 71.0023C370.449 70.2313 368.702 69.8459 366.646 69.8459C364.693 69.8459 362.894 70.1799 361.249 70.8481C359.605 71.5163 358.345 72.2101 357.472 72.9297V98.2942Z" fill="white"/>
</svg>
