<svg width="20" height="24" viewBox="0 0 20 24" fill="none" xmlns="http://www.w3.org/2000/svg">
<path d="M10 0C9.05079 0 8.27586 0.842775 8.27586 1.875C8.27586 2.9073 9.05079 3.75 10 3.75C10.9492 3.75 11.7241 2.9073 11.7241 1.875C11.7241 0.842775 10.9492 0 10 0ZM8.74596 3.7251C7.72388 3.7251 6.89655 4.6449 6.89655 5.76562V6.20947V8.25H8.74596H11.254H13.1034V6.20947V5.76562C13.1034 4.6449 12.2761 3.7251 11.254 3.7251H11.0695L10 4.91016L8.92915 3.7251H8.74596ZM9.31034 9V10.125H4.48411C3.53427 10.125 2.75862 10.9676 2.75862 12V14.25H3.44828V12C3.44828 11.3705 3.90401 10.875 4.48411 10.875H9.31034H10H15.5294C16.1095 10.875 16.5665 11.3705 16.5665 12V14.25H17.2562V12C17.2562 10.9676 16.4792 10.125 15.5294 10.125H10V9H9.31034ZM3.04822 15C2.07268 15 1.27694 15.8669 1.27694 16.9277C1.27694 17.9887 2.07266 18.854 3.04822 18.854C4.02379 18.854 4.8195 17.9887 4.8195 16.9277C4.8195 15.8669 4.02377 15 3.04822 15ZM16.9518 15C15.9762 15 15.1805 15.8669 15.1805 16.9277C15.1805 17.9887 15.9762 18.854 16.9518 18.854C17.9273 18.854 18.7231 17.9887 18.7231 16.9277C18.7231 15.8669 17.9273 15 16.9518 15ZM1.82381 19.5C0.819387 19.5 0 20.3926 0 21.4849V21.5918V24H6.09644V21.5654V21.4849C6.09644 20.3926 5.27706 19.5 4.27263 19.5H1.82381ZM15.7274 19.5C14.7229 19.5 13.9036 20.3926 13.9036 21.4849V21.5918V24H20V21.5654V21.4849C20 20.3926 19.1806 19.5 18.1762 19.5H15.7274Z" fill="#333333"/>
</svg>
