<svg width="40" height="40" viewBox="0 0 40 40" fill="none" xmlns="http://www.w3.org/2000/svg">
<rect width="40" height="40" rx="4" fill="#FFD300"/>
<path d="M10.5017 13V14.4016H12.749V13H10.5017ZM13.4962 13V14.4016H22.4006L21.0879 24.1997H16.3574C16.0444 23.3894 15.2186 22.7983 14.2492 22.7983C13.2798 22.7983 12.4539 23.3894 12.141 24.1997H9V25.5999H12.1396C12.4513 26.4109 13.2782 27 14.2492 27C15.2202 27 16.0471 26.4109 16.3588 25.5999C18.2033 25.5999 20.0478 25.5999 21.8922 25.5999C22.2041 26.4107 23.0295 27 24.0004 27C24.9714 27 25.7983 26.4109 26.1101 25.5999H27.7494C28.0852 25.602 28.3815 25.395 28.4746 25.0939L29.9704 20.1948C30.0135 20.0559 30.0094 19.9077 29.9588 19.7709L28.3971 15.5692C28.2922 15.2875 28.0076 15.0988 27.688 15.0989H23.8189L23.9947 13.7863C24.0499 13.3699 23.703 13.0018 23.2534 13H13.4962ZM9 15.8017V17.2019H11.2488V15.8017H9ZM12.0018 15.8017V17.2019H16.498V15.8017H12.0018ZM23.6312 16.4991H27.1561L28.4629 20.0185L27.1839 24.1997H26.1086C25.7957 23.3894 24.9698 22.7983 24.0004 22.7983C23.5344 22.7983 23.0996 22.935 22.739 23.166L23.6312 16.4991ZM10.5017 18.6019V20.0035H14.2492V18.6019H10.5017ZM14.9978 18.6019V20.0035H17.251V18.6019H14.9978ZM9 21.3981V22.7983H11.2488V21.3981H9ZM14.2492 24.1997C14.6723 24.1997 14.9978 24.5076 14.9978 24.9025C14.9978 25.2975 14.6723 25.5999 14.2492 25.5999C13.826 25.5999 13.4962 25.2975 13.4962 24.9025C13.4962 24.5076 13.826 24.1997 14.2492 24.1997ZM24.0004 24.1997C24.4236 24.1997 24.7476 24.5076 24.7476 24.9025C24.7476 25.2975 24.4236 25.5999 24.0004 25.5999C23.5773 25.5999 23.2532 25.2975 23.2532 24.9025C23.2532 24.5076 23.5773 24.1997 24.0004 24.1997Z" fill="black"/>
</svg>
