<svg width="132" height="49" viewBox="0 0 132 49" fill="none" xmlns="http://www.w3.org/2000/svg">
<path d="M4.70249 36.4385C4.16035 36.4385 3.72428 36.2735 3.39428 35.9435C3.06428 35.6135 2.89928 35.1656 2.89928 34.5999V12.9968C2.89928 12.4546 3.06428 12.0186 3.39428 11.6886C3.72428 11.335 4.16035 11.1582 4.70249 11.1582C5.2682 11.1582 5.71606 11.3232 6.04606 11.6532C6.37606 11.9832 6.54106 12.4311 6.54106 12.9968V34.5999C6.54106 35.1656 6.37606 35.6135 6.04606 35.9435C5.73963 36.2735 5.29177 36.4385 4.70249 36.4385ZM34.4591 11.1582C34.9776 11.1582 35.4019 11.335 35.7319 11.6886C36.0619 12.0186 36.2269 12.4546 36.2269 12.9968V34.706C36.2269 35.2481 36.0737 35.6724 35.7673 35.9789C35.4844 36.2853 35.0837 36.4385 34.5651 36.4385C34.0701 36.4385 33.6812 36.2853 33.3983 35.9789C33.1155 35.6724 32.9741 35.2481 32.9741 34.706V18.265L26.0441 31.4532C25.5962 32.2782 25.0187 32.6907 24.3116 32.6907C23.6044 32.6907 23.0269 32.2782 22.5791 31.4532L15.6137 18.4064V34.706C15.6137 35.2481 15.4723 35.6724 15.1895 35.9789C14.9066 36.2853 14.5059 36.4385 13.9873 36.4385C13.4923 36.4385 13.0916 36.2853 12.7852 35.9789C12.5023 35.6489 12.3609 35.2246 12.3609 34.706V12.9968C12.3609 12.4546 12.5259 12.0186 12.8559 11.6886C13.1859 11.335 13.6102 11.1582 14.1287 11.1582C14.8595 11.1582 15.4487 11.5825 15.8966 12.4311L24.3469 28.5892L32.7266 12.4311C33.1744 11.5825 33.7519 11.1582 34.4591 11.1582ZM43.8577 36.2617C43.292 36.2617 42.8441 36.1085 42.5141 35.8021C42.2077 35.4721 42.0545 35.036 42.0545 34.4939V13.1028C42.0545 12.5607 42.2077 12.1364 42.5141 11.83C42.8441 11.5 43.292 11.335 43.8577 11.335H56.8691C57.4112 11.335 57.8237 11.4646 58.1066 11.7239C58.413 11.9832 58.5662 12.3486 58.5662 12.82C58.5662 13.2914 58.413 13.6568 58.1066 13.9161C57.8237 14.1518 57.4112 14.2696 56.8691 14.2696H45.6255V22.1189H56.1619C56.7041 22.1189 57.1166 22.2485 57.3994 22.5078C57.7059 22.7671 57.8591 23.1325 57.8591 23.6039C57.8591 24.0753 57.7059 24.4407 57.3994 24.7C57.1166 24.9592 56.7041 25.0889 56.1619 25.0889H45.6255V33.3271H56.8691C58.0005 33.3271 58.5662 33.8103 58.5662 34.7767C58.5662 35.2481 58.413 35.6135 58.1066 35.8728C57.8237 36.1321 57.4112 36.2617 56.8691 36.2617H43.8577ZM82.4021 33.6453C82.7086 33.9753 82.8618 34.3407 82.8618 34.7414C82.8618 35.1892 82.685 35.5899 82.3314 35.9435C81.9779 36.2735 81.5771 36.4385 81.1293 36.4385C80.6343 36.4385 80.21 36.2264 79.8564 35.8021L72.1839 26.1496L64.4761 35.8021C64.1225 36.2264 63.71 36.4385 63.2386 36.4385C62.7907 36.4385 62.39 36.2735 62.0365 35.9435C61.6829 35.5899 61.5061 35.1892 61.5061 34.7414C61.5061 34.3642 61.6475 33.9989 61.9304 33.6453L70.0625 23.5685L62.3193 13.9514C62.0365 13.645 61.895 13.2796 61.895 12.8553C61.895 12.4075 62.06 12.0186 62.39 11.6886C62.7436 11.335 63.1443 11.1582 63.5922 11.1582C64.0872 11.1582 64.5115 11.3703 64.865 11.7946L72.1839 21.0228L79.5029 11.7946C79.8329 11.3703 80.2571 11.1582 80.7757 11.1582C81.2236 11.1582 81.6243 11.335 81.9779 11.6886C82.3314 12.0186 82.5082 12.4075 82.5082 12.8553C82.5082 13.2561 82.355 13.6214 82.0486 13.9514L74.3054 23.5685L82.4021 33.6453Z" fill="#28A745"/>
<path d="M88.1094 35.8691V16.1635L90.5208 15.7486V22.6456C90.9702 22.4727 91.4456 22.3431 91.9469 22.2567C92.4654 22.153 92.9754 22.1011 93.4766 22.1011C94.5484 22.1011 95.4386 22.2567 96.1473 22.5678C96.856 22.8617 97.4178 23.2852 97.8326 23.8383C98.2648 24.3742 98.5673 25.0224 98.7401 25.7829C98.913 26.5435 98.9994 27.3819 98.9994 28.298V35.8691H96.5881V28.8166C96.5881 27.9869 96.5276 27.2782 96.4066 26.6904C96.3029 26.1027 96.1214 25.6274 95.8621 25.2644C95.6028 24.9014 95.2571 24.6421 94.8249 24.4865C94.3928 24.3137 93.8569 24.2272 93.2174 24.2272C92.9581 24.2272 92.6901 24.2445 92.4136 24.2791C92.137 24.3137 91.8691 24.3569 91.6098 24.4087C91.3678 24.4433 91.1431 24.4865 90.9356 24.5384C90.7455 24.5902 90.6072 24.6334 90.5208 24.668V35.8691H88.1094ZM113.657 35.4802C113.103 35.6185 112.369 35.7654 111.453 35.921C110.554 36.0766 109.508 36.1544 108.315 36.1544C107.278 36.1544 106.405 36.0074 105.696 35.7136C104.988 35.4024 104.417 34.9703 103.985 34.4171C103.553 33.864 103.242 33.2158 103.052 32.4725C102.862 31.7119 102.767 30.8736 102.767 29.9574V22.3863H105.178V29.4389C105.178 31.081 105.437 32.2564 105.956 32.9651C106.474 33.6739 107.347 34.0282 108.575 34.0282C108.834 34.0282 109.102 34.0196 109.378 34.0023C109.655 33.985 109.914 33.9677 110.156 33.9504C110.398 33.9159 110.614 33.8899 110.804 33.8726C111.012 33.8381 111.159 33.8035 111.245 33.7689V22.3863H113.657V35.4802ZM120.222 22.9827C120.516 22.7925 120.957 22.5937 121.544 22.3863C122.149 22.1789 122.841 22.0752 123.619 22.0752C124.587 22.0752 125.442 22.248 126.186 22.5937C126.946 22.9395 127.586 23.4235 128.104 24.0457C128.623 24.668 129.012 25.4113 129.271 26.2756C129.548 27.1399 129.686 28.0906 129.686 29.1277C129.686 30.2167 129.522 31.202 129.193 32.0836C128.882 32.9479 128.433 33.6825 127.845 34.2875C127.257 34.8925 126.549 35.3592 125.719 35.6876C124.889 36.0161 123.956 36.1803 122.919 36.1803C121.795 36.1803 120.801 36.1025 119.937 35.9469C119.073 35.7914 118.364 35.6358 117.811 35.4802V16.1635L120.222 15.7486V22.9827ZM120.222 33.7689C120.464 33.8381 120.801 33.9072 121.233 33.9764C121.683 34.0282 122.236 34.0541 122.893 34.0541C124.189 34.0541 125.226 33.6306 126.004 32.7836C126.782 31.9194 127.171 30.7007 127.171 29.1277C127.171 28.4363 127.102 27.7881 126.964 27.1831C126.825 26.5781 126.601 26.0595 126.289 25.6274C125.978 25.1779 125.572 24.8322 125.071 24.5902C124.587 24.3309 123.999 24.2013 123.308 24.2013C122.651 24.2013 122.046 24.3137 121.493 24.5384C120.939 24.7631 120.516 24.9964 120.222 25.2384V33.7689Z" fill="#484848"/>
</svg>
