<svg width="38" height="38" viewBox="0 0 38 38" fill="none" xmlns="http://www.w3.org/2000/svg">
<circle cx="19" cy="19" r="18.5" stroke="#28A745"/>
<path d="M24.0016 19.0001C24.0021 19.2921 23.9004 19.5752 23.7141 19.8001L17.4641 27.3001C17.2519 27.5553 16.947 27.7159 16.6165 27.7463C16.2859 27.7768 15.9568 27.6747 15.7016 27.4626C15.4463 27.2504 15.2858 26.9455 15.2553 26.615C15.2248 26.2844 15.3269 25.9553 15.5391 25.7001L21.1391 19.0001L15.7391 12.3001C15.6352 12.1722 15.5577 12.0251 15.5109 11.8671C15.4641 11.7092 15.449 11.5436 15.4664 11.3798C15.4838 11.216 15.5335 11.0573 15.6124 10.9128C15.6914 10.7682 15.7982 10.6407 15.9266 10.5376C16.0551 10.4231 16.2059 10.3364 16.3695 10.2829C16.5331 10.2294 16.7059 10.2103 16.8773 10.2267C17.0486 10.2431 17.2147 10.2948 17.3651 10.3784C17.5156 10.462 17.6471 10.5757 17.7516 10.7126L23.7891 18.2126C23.946 18.4439 24.0208 18.7212 24.0016 19.0001Z" fill="#28A745"/>
</svg>
