<svg width="98" height="98" viewBox="0 0 98 98" fill="none" xmlns="http://www.w3.org/2000/svg">
<g filter="url(#filter0_d)">
<rect x="94" y="90" width="90" height="90" rx="5" transform="rotate(-180 94 90)" fill="#28A745"/>
</g>
<path d="M49 16.375C33.7677 16.375 21.375 28.7677 21.375 44C21.375 59.2323 33.7677 71.625 49 71.625C64.2323 71.625 76.625 59.2323 76.625 44C76.625 28.7677 64.2323 16.375 49 16.375ZM49 61C46.2242 61 44.0169 59.8233 43.7207 57.337C43.7129 57.2627 43.7208 57.1876 43.7439 57.1166C43.7671 57.0455 43.805 56.9802 43.8551 56.9248C43.9053 56.8694 43.9665 56.8252 44.0349 56.7951C44.1033 56.7649 44.1772 56.7496 44.252 56.75H53.7414C53.8169 56.7495 53.8916 56.765 53.9606 56.7956C54.0296 56.8262 54.0913 56.8711 54.1415 56.9274C54.1918 56.9837 54.2295 57.0501 54.2521 57.1221C54.2747 57.1941 54.2817 57.2701 54.2727 57.345C53.934 59.7848 51.7466 61 49 61ZM62.0156 54.625H35.9844C34.4119 54.625 33.5938 52.6328 34.4982 51.5703C36.667 49.0017 38.1997 47.922 38.1997 40.8391C38.1997 34.3485 41.6183 32.0455 44.4419 30.922C44.6362 30.841 44.8114 30.7202 44.9562 30.5674C45.101 30.4146 45.2122 30.2332 45.2826 30.0348C45.7727 28.4078 47.1592 27 49 27C50.8408 27 52.2247 28.4078 52.7188 30.0361C52.7896 30.2344 52.9011 30.4158 53.0461 30.5686C53.1911 30.7214 53.3664 30.8422 53.5608 30.9233C56.3777 32.0442 59.803 34.3512 59.803 40.8404C59.803 47.9233 61.3343 49.003 63.5031 51.5716C64.3983 52.6328 63.5788 54.625 62.0156 54.625Z" fill="white"/>
<defs>
<filter id="filter0_d" x="0" y="0" width="98" height="98" filterUnits="userSpaceOnUse" color-interpolation-filters="sRGB">
<feFlood flood-opacity="0" result="BackgroundImageFix"/>
<feColorMatrix in="SourceAlpha" type="matrix" values="0 0 0 0 0 0 0 0 0 0 0 0 0 0 0 0 0 0 127 0"/>
<feOffset dy="4"/>
<feGaussianBlur stdDeviation="2"/>
<feColorMatrix type="matrix" values="0 0 0 0 0 0 0 0 0 0 0 0 0 0 0 0 0 0 0.25 0"/>
<feBlend mode="normal" in2="BackgroundImageFix" result="effect1_dropShadow"/>
<feBlend mode="normal" in="SourceGraphic" in2="effect1_dropShadow" result="shape"/>
</filter>
</defs>
</svg>
