<svg xmlns="http://www.w3.org/2000/svg" width="61" height="59" viewBox="0 0 61 59"><g><g><path fill="#fff" d="M46.849 58.329a4.07 4.07 0 0 1-2.274-.697l-13.677-9.166a.403.403 0 0 0-.458 0l-13.676 9.166a4.07 4.07 0 0 1-6.197-4.418l4.492-15.84a.42.42 0 0 0-.147-.44L1.969 26.759a4.07 4.07 0 0 1 2.365-7.333l16.5-.624a.422.422 0 0 0 .366-.275l5.684-15.455a4.07 4.07 0 0 1 7.645 0l5.683 15.455a.421.421 0 0 0 .366.275l16.5.624a4.07 4.07 0 0 1 2.365 7.333L46.5 36.934a.404.404 0 0 0-.147.44l4.492 15.84a4.088 4.088 0 0 1-3.997 5.115zm-16.17-13.603a4.051 4.051 0 0 1 2.255.77l13.676 9.166a.404.404 0 0 0 .624-.458l-4.492-15.84a4.051 4.051 0 0 1 1.412-4.308L57.097 23.88a.403.403 0 0 0-.238-.734l-16.5-.623a4.07 4.07 0 0 1-3.667-2.677L31.009 4.392a.403.403 0 0 0-.77 0L24.61 19.83a4.07 4.07 0 0 1-3.666 2.677l-16.5.623a.403.403 0 0 0-.239.733l12.962 10.194a4.07 4.07 0 0 1 1.412 4.308l-4.474 15.84a.386.386 0 0 0 .147.44.367.367 0 0 0 .477 0l13.676-9.167a4.07 4.07 0 0 1 2.255-.678z"/></g></g></svg>