<svg width="31" height="31" viewBox="0 0 31 31" fill="none" xmlns="http://www.w3.org/2000/svg">
<rect width="31" height="31" rx="4" fill="#28A745"/>
<path d="M11.8568 7.76035C11.1607 8.02422 10.5296 8.43418 9.97942 8.98008C8.70032 10.2633 8.1511 12.0941 8.51028 13.8773C8.54856 14.0674 8.71555 14.1984 8.90208 14.1984C8.92825 14.1984 8.95481 14.1959 8.98137 14.1906C9.19797 14.1469 9.33821 13.9359 9.29465 13.7195C8.98821 12.1988 9.45598 10.6383 10.5445 9.54648C11.013 9.08145 11.5499 8.73223 12.1404 8.5084C12.347 8.43008 12.4509 8.19922 12.3726 7.99258C12.2945 7.78594 12.0632 7.68203 11.8568 7.76035ZM13.7505 7.40234C13.7052 7.40234 13.6527 7.40449 13.6072 7.41211C13.3894 7.44941 13.2359 7.65684 13.273 7.87461C13.3064 8.06973 13.47 8.2084 13.6603 8.2084C13.6824 8.2084 13.7048 8.20645 13.7275 8.20254L13.7505 8.20234C13.9714 8.20234 14.1505 8.02324 14.1505 7.80234C14.1505 7.58145 13.9714 7.40234 13.7505 7.40234Z" fill="white"/>
<path d="M20.3563 16.2584C20.9124 15.2064 21.2124 14.0304 21.2124 12.8024C21.2124 10.8264 20.4403 8.96638 19.0443 7.56638C16.1563 4.67839 11.4563 4.67839 8.56833 7.56638C5.68035 10.4544 5.68035 15.1544 8.56833 18.0424C10.0124 19.4864 11.9083 20.2064 13.8043 20.2064C14.9963 20.2064 16.1844 19.9224 17.2643 19.3544L20.5843 22.6744L23.6763 19.5784L20.3563 16.2584ZM9.13635 17.4744C6.56035 14.8984 6.56035 10.7104 9.13635 8.13437C10.4243 6.84639 12.1124 6.20239 13.8043 6.20239C15.4963 6.20239 17.1883 6.84639 18.4763 8.13437C19.7243 9.37839 20.4124 11.0384 20.4124 12.8024C20.4124 14.5704 19.7243 16.2304 18.4763 17.4744C15.9003 20.0504 11.7124 20.0504 9.13635 17.4744ZM24.9604 20.8624L24.2403 20.1424L21.1483 23.2384L21.8683 23.9584C22.2923 24.3824 22.8523 24.5984 23.4124 24.5984C23.9723 24.5984 24.5323 24.3824 24.9604 23.9584C25.8124 23.1064 25.8124 21.7144 24.9604 20.8624Z" fill="white"/>
</svg>
