<svg width="20" height="23" viewBox="0 0 20 23" fill="none" xmlns="http://www.w3.org/2000/svg">
<path d="M19.728 19.2821L15.8332 14.9986C15.6574 14.8052 15.4191 14.6978 15.1691 14.6978H14.5323C15.6105 13.1812 16.2512 11.2735 16.2512 9.19835C16.2512 4.26172 12.6142 0.261719 8.12559 0.261719C3.63698 0.261719 0 4.26172 0 9.19835C0 14.135 3.63698 18.135 8.12559 18.135C10.0125 18.135 11.747 17.4304 13.126 16.2445V16.9449C13.126 17.2198 13.2236 17.4819 13.3994 17.6753L17.2942 21.9588C17.6614 22.3627 18.2552 22.3627 18.6185 21.9588L19.7241 20.7429C20.0913 20.3391 20.0913 19.686 19.728 19.2821ZM8.12559 14.6978C5.36367 14.6978 3.12523 12.2402 3.12523 9.19835C3.12523 6.16075 5.35977 3.69888 8.12559 3.69888C10.8875 3.69888 13.126 6.15646 13.126 9.19835C13.126 12.2359 10.8914 14.6978 8.12559 14.6978Z" fill="#6C757D"/>
</svg>
