<svg width="20" height="20" viewBox="0 0 20 20" fill="none" xmlns="http://www.w3.org/2000/svg">
<path d="M17.7778 0H2.22222C1 0 0 1 0 2.22222V17.7778C0 19 1 20 2.22222 20H17.7778C19 20 20 19 20 17.7778V2.22222C20 1 19 0 17.7778 0ZM5.55556 15.5556C4.94444 15.5556 4.44444 15.0556 4.44444 14.4444V8.88889C4.44444 8.27778 4.94444 7.77778 5.55556 7.77778C6.16667 7.77778 6.66667 8.27778 6.66667 8.88889V14.4444C6.66667 15.0556 6.16667 15.5556 5.55556 15.5556ZM10 15.5556C9.38889 15.5556 8.88889 15.0556 8.88889 14.4444V5.55556C8.88889 4.94444 9.38889 4.44444 10 4.44444C10.6111 4.44444 11.1111 4.94444 11.1111 5.55556V14.4444C11.1111 15.0556 10.6111 15.5556 10 15.5556ZM14.4444 15.5556C13.8333 15.5556 13.3333 15.0556 13.3333 14.4444V12.2222C13.3333 11.6111 13.8333 11.1111 14.4444 11.1111C15.0556 11.1111 15.5556 11.6111 15.5556 12.2222V14.4444C15.5556 15.0556 15.0556 15.5556 14.4444 15.5556Z" fill="#333333"/>
</svg>
