<svg width="20" height="20" viewBox="0 0 20 20" fill="none" xmlns="http://www.w3.org/2000/svg">
<path d="M14.5013 18.3334C11.099 18.329 7.8374 16.9755 5.43164 14.5698C3.02587 12.164 1.67238 8.90234 1.66797 5.50009C1.66797 4.48342 2.07184 3.5084 2.79073 2.78951C3.50962 2.07062 4.48464 1.66675 5.5013 1.66675C5.71659 1.66511 5.93151 1.68465 6.14297 1.72509C6.34739 1.75534 6.54836 1.80558 6.74297 1.87509C6.87984 1.92311 7.00181 2.00603 7.09681 2.11565C7.19181 2.22526 7.25655 2.35778 7.28464 2.50009L8.4263 7.50009C8.45708 7.6358 8.45337 7.77707 8.41552 7.91099C8.37768 8.04491 8.30689 8.16722 8.20964 8.26675C8.1013 8.38342 8.09297 8.39175 7.06797 8.92509C7.8888 10.7258 9.32897 12.1719 11.1263 13.0001C11.668 11.9668 11.6763 11.9584 11.793 11.8501C11.8925 11.7528 12.0148 11.682 12.1487 11.6442C12.2827 11.6064 12.4239 11.6026 12.5596 11.6334L17.5596 12.7751C17.6974 12.807 17.8247 12.8735 17.9297 12.9683C18.0347 13.0631 18.1138 13.183 18.1596 13.3168C18.23 13.5146 18.2829 13.7181 18.318 13.9251C18.3515 14.1345 18.3682 14.3463 18.368 14.5584C18.3526 15.5707 17.9374 16.5359 17.2129 17.2431C16.4885 17.9504 15.5137 18.3423 14.5013 18.3334Z" fill="#333333"/>
</svg>
