<svg width="40" height="40" viewBox="0 0 40 40" fill="none" xmlns="http://www.w3.org/2000/svg">
<rect width="40" height="40" rx="4" fill="#FFD300"/>
<path d="M25.0754 16.3076C25.0754 16.6258 25.0754 16.9425 25.0754 17.2607C25.0754 18.0244 25.0754 18.7865 25.0754 19.5502C25.0754 20.4738 25.0754 21.3974 25.0754 22.3195C25.0754 23.1173 25.0754 23.9152 25.0754 24.713C25.0754 25.0996 25.0709 25.4876 25.0754 25.8741C25.0754 25.8788 25.0754 25.885 25.0754 25.8897C25.323 25.6304 25.5691 25.3728 25.8167 25.1135C25.6995 25.1135 25.5824 25.1135 25.4653 25.1135C25.1465 25.1135 24.8263 25.1135 24.5075 25.1135C24.0361 25.1135 23.5631 25.1135 23.0917 25.1135C22.5164 25.1135 21.9397 25.1135 21.3644 25.1135C20.7343 25.1135 20.1028 25.1135 19.4727 25.1135C18.8381 25.1135 18.2036 25.1135 17.5705 25.1135C16.9775 25.1135 16.3829 25.1135 15.7899 25.1135C15.2888 25.1135 14.7862 25.1135 14.2851 25.1135C13.9248 25.1135 13.5631 25.1135 13.2028 25.1135C13.0323 25.1135 12.8618 25.112 12.6913 25.1135C12.6839 25.1135 12.6765 25.1135 12.6691 25.1135C12.9166 25.3728 13.1628 25.6304 13.4103 25.8897C13.4103 25.5714 13.4103 25.2548 13.4103 24.9366C13.4103 24.1729 13.4103 23.4107 13.4103 22.647C13.4103 21.7234 13.4103 20.7998 13.4103 19.8778C13.4103 19.0799 13.4103 18.282 13.4103 17.4842C13.4103 17.0977 13.4148 16.7096 13.4103 16.3231C13.4103 16.3184 13.4103 16.3122 13.4103 16.3076C13.1628 16.5668 12.9166 16.8245 12.6691 17.0837C12.7862 17.0837 12.9033 17.0837 13.0204 17.0837C13.3392 17.0837 13.6594 17.0837 13.9782 17.0837C14.4496 17.0837 14.9226 17.0837 15.3941 17.0837C15.9693 17.0837 16.546 17.0837 17.1213 17.0837C17.7514 17.0837 18.383 17.0837 19.0131 17.0837C19.6476 17.0837 20.2822 17.0837 20.9152 17.0837C21.5083 17.0837 22.1028 17.0837 22.6958 17.0837C23.1969 17.0837 23.6995 17.0837 24.2006 17.0837C24.5609 17.0837 24.9227 17.0837 25.2829 17.0837C25.4534 17.0837 25.6239 17.0853 25.7944 17.0837C25.8018 17.0837 25.8092 17.0837 25.8167 17.0837C26.0064 17.0837 26.2066 16.9968 26.3415 16.8571C26.4705 16.722 26.5668 16.5016 26.558 16.3076C26.5491 16.1073 26.4868 15.8993 26.3415 15.7581C26.1962 15.6184 26.0183 15.5315 25.8167 15.5315C25.6995 15.5315 25.5824 15.5315 25.4653 15.5315C25.1465 15.5315 24.8263 15.5315 24.5075 15.5315C24.0361 15.5315 23.5631 15.5315 23.0917 15.5315C22.5164 15.5315 21.9397 15.5315 21.3644 15.5315C20.7343 15.5315 20.1028 15.5315 19.4727 15.5315C18.8381 15.5315 18.2036 15.5315 17.5705 15.5315C16.9775 15.5315 16.3829 15.5315 15.7899 15.5315C15.2888 15.5315 14.7862 15.5315 14.2851 15.5315C13.9248 15.5315 13.5631 15.5315 13.2028 15.5315C13.0323 15.5315 12.8618 15.5299 12.6913 15.5315C12.6839 15.5315 12.6765 15.5315 12.6691 15.5315C12.2688 15.5315 11.9278 15.8869 11.9278 16.3076C11.9278 16.6258 11.9278 16.9425 11.9278 17.2607C11.9278 18.0244 11.9278 18.7865 11.9278 19.5502C11.9278 20.4738 11.9278 21.3974 11.9278 22.3195C11.9278 23.1173 11.9278 23.9152 11.9278 24.713C11.9278 25.0996 11.9233 25.4876 11.9278 25.8741C11.9278 25.8788 11.9278 25.885 11.9278 25.8897C11.9278 26.3088 12.2673 26.6658 12.6691 26.6658C12.7862 26.6658 12.9033 26.6658 13.0204 26.6658C13.3392 26.6658 13.6594 26.6658 13.9782 26.6658C14.4496 26.6658 14.9226 26.6658 15.3941 26.6658C15.9693 26.6658 16.546 26.6658 17.1213 26.6658C17.7514 26.6658 18.383 26.6658 19.0131 26.6658C19.6476 26.6658 20.2822 26.6658 20.9152 26.6658C21.5083 26.6658 22.1028 26.6658 22.6958 26.6658C23.1969 26.6658 23.6995 26.6658 24.2006 26.6658C24.5609 26.6658 24.9227 26.6658 25.2829 26.6658C25.4534 26.6658 25.6239 26.6673 25.7944 26.6658C25.8018 26.6658 25.8092 26.6658 25.8167 26.6658C26.217 26.6658 26.558 26.3103 26.558 25.8897C26.558 25.5714 26.558 25.2548 26.558 24.9366C26.558 24.1729 26.558 23.4107 26.558 22.647C26.558 21.7234 26.558 20.7998 26.558 19.8778C26.558 19.0799 26.558 18.282 26.558 17.4842C26.558 17.0977 26.5624 16.7096 26.558 16.3231C26.558 16.3184 26.558 16.3122 26.558 16.3076C26.558 16.1089 26.4749 15.8993 26.3415 15.7581C26.2125 15.623 26.002 15.5221 25.8167 15.5315C25.6254 15.5408 25.4267 15.606 25.2918 15.7581C25.1599 15.9118 25.0754 16.098 25.0754 16.3076Z" fill="black"/>
<path d="M25.8113 15.5328C25.6942 15.5328 25.5771 15.5328 25.46 15.5328C25.1412 15.5328 24.821 15.5328 24.5022 15.5328C24.0307 15.5328 23.5578 15.5328 23.0863 15.5328C22.5111 15.5328 21.9344 15.5328 21.3591 15.5328C20.729 15.5328 20.0974 15.5328 19.4673 15.5328C18.8328 15.5328 18.1982 15.5328 17.5652 15.5328C16.9721 15.5328 16.3776 15.5328 15.7846 15.5328C15.2835 15.5328 14.7809 15.5328 14.2798 15.5328C13.9195 15.5328 13.5577 15.5328 13.1975 15.5328C13.027 15.5328 12.8565 15.5312 12.686 15.5328C12.6786 15.5328 12.6711 15.5328 12.6637 15.5328C12.8387 15.9752 13.0136 16.416 13.1886 16.8584C13.5147 16.4952 13.8409 16.132 14.1671 15.7687C14.6875 15.1897 15.2079 14.6123 15.7268 14.0333C15.8454 13.9014 15.9655 13.7679 16.0841 13.6359C15.9091 13.712 15.7342 13.7881 15.5592 13.8626C15.8039 13.8626 16.047 13.8626 16.2916 13.8626C16.8772 13.8626 17.4644 13.8626 18.05 13.8626C18.7572 13.8626 19.4629 13.8626 20.1701 13.8626C20.7854 13.8626 21.3991 13.8626 22.0144 13.8626C22.3109 13.8626 22.6075 13.8672 22.904 13.8626C22.9084 13.8626 22.9129 13.8626 22.9173 13.8626C22.7424 13.7865 22.5674 13.7104 22.3925 13.6359C22.7187 13.9992 23.0448 14.3624 23.371 14.7256C23.8914 15.3046 24.4118 15.8821 24.9307 16.461C25.0493 16.593 25.1694 16.7265 25.288 16.8584C25.4155 17.0012 25.6275 17.0851 25.8128 17.0851C25.9952 17.0851 26.2116 17.0012 26.3377 16.8584C26.4666 16.711 26.563 16.5169 26.5541 16.3089C26.5452 16.0994 26.4755 15.9147 26.3377 15.7594C26.0426 15.4319 25.7491 15.1044 25.454 14.7768C24.9514 14.218 24.4503 13.6592 23.9477 13.102C23.798 12.9343 23.6468 12.7682 23.497 12.6006C23.3443 12.4298 23.1545 12.315 22.9158 12.3103C22.8951 12.3103 22.8743 12.3103 22.855 12.3103C22.4518 12.3103 22.0485 12.3103 21.6453 12.3103C20.9366 12.3103 20.2279 12.3103 19.5192 12.3103C18.775 12.3103 18.0307 12.3103 17.2879 12.3103C16.7868 12.3103 16.2857 12.3103 15.7846 12.3103C15.6511 12.3103 15.4895 12.2948 15.362 12.3383C15.107 12.4252 14.9662 12.6146 14.7927 12.807C14.3257 13.3255 13.8602 13.8439 13.3932 14.3639C12.9958 14.8063 12.5985 15.2472 12.2012 15.6896C12.1804 15.7129 12.1582 15.7377 12.1374 15.761C11.9313 15.9907 11.8661 16.3167 11.9847 16.6085C12.0989 16.8895 12.3642 17.0851 12.6622 17.0851C12.7794 17.0851 12.8965 17.0851 13.0136 17.0851C13.3324 17.0851 13.6526 17.0851 13.9714 17.0851C14.4428 17.0851 14.9158 17.0851 15.3872 17.0851C15.9625 17.0851 16.5392 17.0851 17.1145 17.0851C17.7446 17.0851 18.3761 17.0851 19.0062 17.0851C19.6408 17.0851 20.2753 17.0851 20.9084 17.0851C21.5014 17.0851 22.096 17.0851 22.689 17.0851C23.1901 17.0851 23.6927 17.0851 24.1938 17.0851C24.5541 17.0851 24.9158 17.0851 25.2761 17.0851C25.4466 17.0851 25.6171 17.0866 25.7876 17.0851C25.795 17.0851 25.8024 17.0851 25.8099 17.0851C25.9996 17.0851 26.1998 16.9981 26.3347 16.8584C26.4637 16.7234 26.56 16.503 26.5511 16.3089C26.5423 16.1087 26.48 15.9007 26.3347 15.7594C26.1909 15.6213 26.013 15.5328 25.8113 15.5328Z" fill="black"/>
<path d="M19.7985 16.3076C19.7985 16.7888 19.7985 17.2684 19.7985 17.7496C19.7985 18.5118 19.7985 19.2755 19.7985 20.0376C19.7985 20.213 19.7985 20.3885 19.7985 20.5639C20.1706 20.3403 20.5428 20.1168 20.9134 19.8933C20.4242 19.6247 19.9349 19.3562 19.4442 19.0877C19.3819 19.0535 19.3196 19.0178 19.2559 18.9837C19.1402 18.9231 19.0142 18.8703 18.8808 18.8766C18.7444 18.8828 18.6287 18.9169 18.5057 18.9821C18.4998 18.9852 18.4938 18.9883 18.4879 18.993C18.4553 19.0116 18.4212 19.0287 18.3886 19.0473C18.1039 19.2041 17.8192 19.3593 17.5346 19.5161C17.3063 19.6418 17.078 19.7676 16.8482 19.8917C17.2203 20.1153 17.5924 20.3388 17.9631 20.5623C17.9631 20.0811 17.9631 19.6015 17.9631 19.1203C17.9631 18.3581 17.9631 17.5944 17.9631 16.8322C17.9631 16.6568 17.9631 16.4814 17.9631 16.306C17.7155 16.5652 17.4694 16.8229 17.2218 17.0821C17.5954 17.0821 17.9675 17.0821 18.3411 17.0821C18.9356 17.0821 19.5316 17.0821 20.1262 17.0821C20.264 17.0821 20.4004 17.0821 20.5383 17.0821C20.7281 17.0821 20.9282 16.9952 21.0631 16.8555C21.1921 16.7205 21.2885 16.5001 21.2796 16.306C21.2707 16.1058 21.2084 15.8978 21.0631 15.7565C20.9179 15.6168 20.7399 15.5299 20.5383 15.5299C20.1647 15.5299 19.7926 15.5299 19.419 15.5299C18.8244 15.5299 18.2284 15.5299 17.6339 15.5299C17.496 15.5299 17.3596 15.5299 17.2218 15.5299C16.8215 15.5299 16.4805 15.8854 16.4805 16.306C16.4805 16.7872 16.4805 17.2669 16.4805 17.7481C16.4805 18.5102 16.4805 19.2739 16.4805 20.0361C16.4805 20.2115 16.4805 20.3869 16.4805 20.5623C16.4805 20.8355 16.6228 21.0947 16.8482 21.2329C17.0854 21.3788 17.3582 21.3633 17.5969 21.2329C18.0802 20.9674 18.565 20.702 19.0483 20.4366C19.118 20.3993 19.1862 20.3605 19.2559 20.3233C19.0068 20.3233 18.7577 20.3233 18.5072 20.3233C18.9905 20.5887 19.4753 20.8541 19.9586 21.1196C20.0283 21.1568 20.0965 21.1956 20.1662 21.2329C20.4034 21.3633 20.6777 21.3788 20.9149 21.2329C21.1402 21.0947 21.2826 20.8371 21.2826 20.5623C21.2826 20.0811 21.2826 19.6015 21.2826 19.1203C21.2826 18.3581 21.2826 17.5944 21.2826 16.8322C21.2826 16.6568 21.2826 16.4814 21.2826 16.306C21.2826 16.1073 21.1995 15.8978 21.0661 15.7565C20.9371 15.6215 20.7266 15.5206 20.5413 15.5299C20.35 15.5392 20.1514 15.6044 20.0164 15.7565C19.883 15.9117 19.7985 16.098 19.7985 16.3076Z" fill="black"/>
</svg>
