<svg width="63" height="65" viewBox="0 0 63 65" fill="none" xmlns="http://www.w3.org/2000/svg">
<rect width="63" height="65" rx="4" fill="#28A745"/>
<path d="M31.5 18C22.9536 18 16 24.9536 16 33.5C16 42.0464 22.9536 49 31.5 49C40.0464 49 47 42.0464 47 33.5C47 24.9536 40.0464 18 31.5 18ZM31.5 45.1579C25.0713 45.1579 19.8421 39.9282 19.8421 33.5C19.8421 27.0713 25.0713 21.8411 31.5 21.8411C37.9287 21.8411 43.1579 27.0713 43.1579 33.5C43.1579 39.9282 37.9282 45.1579 31.5 45.1579Z" fill="white"/>
<path d="M31.5217 26.7096C30.9866 26.7096 30.5254 26.5458 30.1433 26.2172C29.7613 25.8877 29.5708 25.4206 29.5708 24.817C29.5708 24.2702 29.7652 23.8196 30.157 23.4673C30.5482 23.1129 31.0036 22.9355 31.5217 22.9355C32.0209 22.9355 32.4656 23.095 32.8515 23.4167C33.2364 23.737 33.4313 24.2046 33.4313 24.817C33.4313 25.4114 33.2418 25.8736 32.8646 26.2109C32.4875 26.5438 32.0398 26.7096 31.5217 26.7096ZM33.4313 30.6989V41.8567C33.4313 42.6295 33.2457 43.2142 32.8787 43.6103C32.5127 44.005 32.0452 44.2038 31.4794 44.2038C30.9137 44.2038 30.4525 44.0021 30.1001 43.5962C29.7458 43.1904 29.5703 42.6105 29.5703 41.8567V30.8131C29.5703 30.0491 29.7458 29.4731 30.1001 29.0872C30.4525 28.6999 30.9137 28.5093 31.4794 28.5093C32.0452 28.5093 32.5127 28.6999 32.8787 29.0872C33.2457 29.4727 33.4313 30.0122 33.4313 30.6989Z" fill="white"/>
</svg>
