<svg width="63" height="65" viewBox="0 0 63 65" fill="none" xmlns="http://www.w3.org/2000/svg">
<rect width="63" height="65" rx="4" fill="#28A745"/>
<path d="M17 22V44H22.581V36.6203H29.1302V44H34.7112V22H17ZM23.758 33.4084H20.398V32.016H23.758V33.4084ZM23.758 30.1688H20.398V28.7764H23.758V30.1688ZM23.758 26.9291H20.398V25.5367H23.758V26.9291ZM31.1803 33.4084H27.8203V32.016H31.1803V33.4084ZM31.1803 30.1688H27.8203V28.7764H31.1803V30.1688ZM31.1803 26.9291H27.8203V25.5367H31.1803V26.9291ZM36.1349 28.0709V44H45V28.0709H36.1349ZM43.3295 37.3165H37.8054V35.924H43.3295V37.3165ZM43.3295 33.1392H37.8054V31.7468H43.3295V33.1392Z" fill="white"/>
</svg>
